# xmcd
#
# Track frame offsets: 
#        183
#        16940
#        30465
#        40973
#        53148
#        61583
#        71453
#        83058
#        96023
#        108878
#        122203
#        139435
#
# Disc length: 2298 seconds
#
# Revision: 3
# Processed by: cddbd v1.5.2PL0 Copyright (c) Steve Scherf et al.
# Submitted via: ExactAudioCopy v1.0b6
#
DISCID=9608f80c
DTITLE=Elvis Presley - Reconsider Baby
DYEAR=1900
DGENRE=Blues
TTITLE0=Reconsider Baby (1960)
TTITLE1=Tommorrow Night (1954)
TTITLE2=So Glad You're Mine (1956)
TTITLE3=One Night (1957)
TTITLE4=When it Rains, It Really Pours (1957)
TTITLE5=My Baby Left Me (1956)
TTITLE6=Ain't That Loving You Baby (1958)
TTITLE7=I Feel So Bad (1961)
TTITLE8=Down In The Alley (1966)
TTITLE9=Hi-Heel Sneekers (1967)
TTITLE10=Stranger In My Home Town (1969)
TTITLE11=Merry Christmas Baby (1971)
EXTD=
EXTT0=
EXTT1=
EXTT2=
EXTT3=
EXTT4=
EXTT5=
EXTT6=
EXTT7=
EXTT8=
EXTT9=
EXTT10=
EXTT11=
PLAYORDER=
